Simulation
nRows=35
nColumns=15
endheader
time  TH_x TH_y TH_z SC_y  SC_z  SC_x  AC_y  AC_z  AC_x  GH_y  GH_z  GH_yy  EL_x  PS_y
0.0  0.000000  0.000000  0.000000  -21.481837363305974  5.049547332879065  0.3347068766571287  40.904314626304135  3.896775965024035  -9.111725846374172  78.53568036943008  10.610404752923582  -25.030359293070127  20.76372386275017  120.000000
0.04802000000000001  0.000000  0.000000  0.000000  -22.544054789157506  5.109878562957164  0.4625697613306268  41.8472944695054  4.604546681489689  -8.215337402602149  71.50263342180504  9.649174174178464  -18.913353536448128  20.22950662636325  120.000000
0.09604000000000001  0.000000  0.000000  0.000000  -23.42695645631195  5.154665720124054  0.56089109633002  42.7682190023759  5.225076702060697  -7.365022115294308  63.113894260053634  9.02436758672781  -11.60074110993805  19.688967024722462  120.000000
0.14406000000000002  0.000000  0.000000  0.000000  -24.1319455207057  5.196010940363658  0.5970964119092081  43.60955457723069  5.724356590821682  -6.598484476798399  53.24991887953169  8.761062407969723  -3.119719258160564  19.091582143752962  120.000000
0.19208000000000003  0.000000  0.000000  0.000000  -24.76127706765583  5.269553766651597  0.575425489910655  44.332762684363935  6.108341638640333  -5.888419596006497  42.464171039777085  8.931525389262397  5.8938485077925  18.42801835497574  120.000000
0.24010000000000004  0.000000  0.000000  0.000000  -25.403761826544084  5.390454844068755  0.5219472646367497  44.953401333650966  6.407138601743243  -5.212536288693132  32.07272357353625  9.595569348679557  14.124347245041873  17.70800032909907  120.000000
0.28812000000000004  0.000000  0.000000  0.000000  -26.148458069374612  5.585953724532571  0.48121164891432466  45.49310089827926  6.654470599491262  -4.553696290182119  23.29325874716247  10.725832091156438  20.40742635118704  16.959913006706476  120.000000
0.33614000000000005  0.000000  0.000000  0.000000  -27.04220959456076  5.875392737426699  0.49872921208418636  45.97350880442137  6.892213468332702  -3.9099115698255145  16.44902144435867  12.232838411078006  24.493794013647864  16.200112299412346  120.000000
0.38416000000000006  0.000000  0.000000  0.000000  -28.094496642632098  6.277888186814184  0.6149089390440491  46.40375004737989  7.149123529983046  -3.2753900193894414  11.230261465416538  14.023445600238121  26.776583729843594  15.445059883937994  120.000000
0.43218000000000006  0.000000  0.000000  0.000000  -29.286310219433915  6.796986289326814  0.8582364795055539  46.782570632580416  7.436732532216315  -2.64756097741572  7.172399684068458  16.030059279845602  27.801254749728212  14.706367517596432  120.000000
0.48020000000000007  0.000000  0.000000  0.000000  -30.58392761279657  7.430471541175529  1.2395798710878763  47.10694153867182  7.747749078586311  -2.0279237600182674  3.905095511177991  18.208146410283092  28.016674789590912  13.99897979453274  120.000000
0.5282200000000001  0.000000  0.000000  0.000000  -31.94804141281106  8.161720275506257  1.756229282672937  47.370832122670386  8.061701348548045  -1.4204148875759153  1.179684671200475  20.526137958480817  27.743114575638657  13.332463510442233  120.000000
0.5762400000000001  0.000000  0.000000  0.000000  -33.34043362034276  8.973527047581833  2.396297249198076  47.57465774944607  8.3516802160295  -0.8284070709972805  -1.1277539305614794  22.959861311615736  27.16784551664336  12.715544949531907  120.000000
0.62426  0.000000  0.000000  0.000000  -34.72769788544499  9.84204981767118  3.142940430051452  47.72349015163408  8.592152213002864  -0.25517026101333756  -3.073274441179052  25.487530604469487  26.395752907595924  12.15207868718997  120.000000
0.6722800000000001  0.000000  0.000000  0.000000  -36.083330016296955  10.745077977955106  3.975686666255883  47.83050264976727  8.763607428538718  0.29558540029651503  -4.671420411089422  28.084689084903438  25.471857989384443  11.642818509867535  120.000000
0.7203000000000002  0.000000  0.000000  0.000000  -37.38864255044724  11.657121672681724  4.872028581231472  47.91147214921965  8.86038407967583  0.8240398942116234  -5.927407723395364  30.724368193932886  24.408733494386002  11.181441412361995  120.000000
0.7683200000000001  0.000000  0.000000  0.000000  -38.63146601298061  12.555765145854735  5.817006809402788  47.98691573099714  8.885836881986352  1.3268886609927901  -6.8476418669725545  33.3763241914561  23.198043740116034  10.75427857604691  120.000000
0.8163400000000001  0.000000  0.000000  0.000000  -39.80580081347084  13.417439951984436  6.808840994100669  48.07629270631508  8.848914277906822  1.7983322235060355  -7.451051441183675  36.01154989020099  21.827249502462653  10.340899469451381  120.000000
0.8643600000000001  0.000000  0.000000  0.000000  -40.9098827769809  14.222360901137693  7.85022395183189  48.196382324410735  8.764144918851091  2.2321965367271255  -7.771097770763304  38.60360441577688  20.29169967161902  9.91947151925056  120.000000
0.9123800000000002  0.000000  0.000000  0.000000  -41.94243236838401  14.953278494876495  8.942211409333456  48.35667398636863  8.64979392256595  2.62435701273401  -7.85718409481742  41.13108511942886  18.6063242728769  9.473856017826114  120.000000
0.9604000000000001  0.000000  0.000000  0.000000  -42.89965234811298  15.597586376842598  10.078468556315247  48.55753825830734  8.522634565420278  2.972703910138534  -7.770364919543353  43.57552890723328  16.810837378183326  9.001687464445755  120.000000
1.00842  0.000000  0.000000  0.000000  -43.772401590833255  16.148488174594753  11.2478533582189  48.78915238799727  8.391516111942025  3.2710381099872454  -7.577736012521344  45.91916440819596  14.967983982966102  8.516840998602577  120.000000
1.0564400000000003  0.000000  0.000000  0.000000  -44.55181718926065  16.606207027173674  12.436867769659099  49.03400382960249  8.254460763115707  3.5094731278907236  -7.343476506196824  48.144647637587  13.153789525960201  8.044455477139774  120.000000
1.1044600000000002  0.000000  0.000000  0.000000  -45.23202132713255  16.97799714158673  13.625286263954935  49.2727798546526  8.102717730511808  3.676715408757111  -7.120909517353111  50.23384140325863  11.444925160033808  7.61307798334439  120.000000
1.1524800000000002  0.000000  0.000000  0.000000  -45.81357469371164  17.274041423924604  14.788552454894987  49.48906047748019  7.923432694654896  3.7653834094598455  -6.946801612140736  52.16747733725023  9.907904087362954  7.248112414515439  120.000000
1.2005000000000001  0.000000  0.000000  0.000000  -46.30098458934533  17.50694732988443  15.898830145684078  49.67365133763141  7.703157700531675  3.771098093534207  -6.840883091368642  53.92463338059753  8.59255953836623  6.968141659408152  120.000000
1.24852  0.000000  0.000000  0.000000  -46.70222953207378  17.688557025194143  16.93009062847423  49.82420509828338  7.430612741794728  3.694468037987883  -6.807874359357486  55.48472947157798  7.529953588902369  6.784748202179619  120.000000
1.2965400000000002  0.000000  0.000000  0.000000  -47.02589318924358  17.830299610304404  17.86049767335004  49.942912817613184  7.099627676856085  3.539611426709554  -6.842892733951644  56.83050982876576  6.733215174365833  6.703313846896787  120.000000
1.3445600000000002  0.000000  0.000000  0.000000  -47.28109920468177  17.941429391887386  18.677174598348568  50.0331710310718  6.711161080551235  3.315348194406583  -6.935963377245521  57.95237831901018  6.198214140156829  6.721297634031515  120.000000
1.3925800000000002  0.000000  0.000000  0.000000  -47.476288058851395  18.028607613129754  19.37880219943035  50.097438674064406  6.275434416240324  3.0348429544541333  -7.076050833377361  58.850676800611886  5.903376300077965  6.823538527386789  120.000000
1.4406000000000003  0.000000  0.000000  0.000000  -47.61938627759863  18.095601768629116  19.97607238963744  50.13867215284552  5.812388703106565  2.714413094299897  -7.252476322969409  59.53683470388377  5.810841866851144  6.979192324974044  120.000000
1.4886200000000003  0.000000  0.000000  0.000000  -47.71706022266068  18.14302097943638  20.490342497534265  50.15948135541043  5.348310614130492  2.372783153131399  -7.454976549494324  60.03163287266245  5.871820703143169  7.145778293997936  120.000000
1.5366400000000002  0.000000  0.000000  0.000000  -47.77511020859645  18.170567536250385  20.94652989399426  50.16415635314504  4.909957375479772  2.026433630951472  -7.672287431529333  60.36103376096694  6.034935358061613  7.278700108554023  120.000000
1.5846600000000002  0.000000  0.000000  0.000000  -47.79738333358649  18.17705410913127  21.367243627521077  50.156822822135695  4.518012327332381  1.6882965030776393  -7.89031034344377  60.549599611290795  6.254828894560287  7.343651271241123  120.000000
1.6326800000000001  0.000000  0.000000  0.000000  -47.784975807250795  18.161571469384462  21.765754297550707  50.14186660135957  4.182767136271009  1.3643395375312528  -8.090938708043128  60.61341912141538  6.4982816107434065  7.326984305679353  120.000000
